Coordinates
version=1
nRows=14
nColumns=24
inDegrees=yes

Units are S.I. units (second, meters, Newtons, ...)
Angles are in degrees.

endheader
time	pelvis_tilt	pelvis_list	pelvis_rotation	pelvis_tx	pelvis_ty	pelvis_tz	hip_flexion_r	hip_adduction_r	hip_rotation_r	knee_angle_r	ankle_angle_r	subtalar_angle_r	mtp_angle_r	hip_flexion_l	hip_adduction_l	hip_rotation_l	knee_angle_l	ankle_angle_l	subtalar_angle_l	mtp_angle_l	lumbar_extension	lumbar_bending	lumbar_rotation
      4.16000000	     13.66246459	      7.51259242	     14.71587673	     -0.00158029	      0.74187473	     -0.24542838	      8.57679590	    -10.35817278	    -15.09545077	     -8.49153891	     16.57855228	     18.74054467	      0.00000000	    -25.46697902	      1.65827976	      9.99177908	    -31.18459110	     26.90325133	     16.07386267	      0.00000000	    -33.46579434	      0.98906611	    -20.78409668
      4.16500000	     13.73773306	      7.07523957	     14.77756577	      0.00652060	      0.74196365	     -0.24505460	      8.36652134	     -9.75078446	    -14.90070617	     -9.16194952	     15.92976318	     17.35354879	      0.00000000	    -24.72728183	      1.25892167	     10.02718387	    -33.58194190	     25.30783033	     15.54544096	      0.00000000	    -33.37384453	      1.50891993	    -20.46008314
      4.17000000	     13.82256694	      6.56350510	     14.67793161	      0.01462520	      0.74203867	     -0.24453499	      8.23205790	     -9.03881235	    -14.47431187	     -9.89407283	     15.24408541	     15.90195093	      0.00000000	    -23.91980400	      0.83836754	      9.78129147	    -36.02070953	     23.58090837	     15.09631640	      0.00000000	    -33.29565190	      2.02794902	    -19.94288069
      4.17500000	     13.93326325	      6.02415748	     14.57972832	      0.02264842	      0.74216017	     -0.24401837	      8.10700379	     -8.30004527	    -14.08568548	    -10.70448399	     14.61142603	     14.49983862	      0.00000000	    -23.05971328	      0.40099055	      9.55919922	    -38.50764043	     21.70972528	     14.49318853	      0.00000000	    -33.26371569	      2.58707093	    -19.43127675
      4.18000000	     14.04418526	      5.45298365	     14.45029186	      0.03058413	      0.74229604	     -0.24347475	      8.02050780	     -7.52691805	    -13.65488239	    -11.56353395	     14.01978608	     13.14877606	      0.00000000	    -22.12597401	     -0.04837200	      9.29376965	    -41.01808721	     19.74734923	     13.77486538	      0.00000000	    -33.25720602	      3.16560655	    -18.88733510
      4.18500000	     14.15529473	      4.85027623	     14.30283825	      0.03843253	      0.74244417	     -0.24290849	      7.96275424	     -6.71680829	    -13.18054578	    -12.45935246	     13.50057686	     11.88796360	      0.00000000	    -21.12348843	     -0.51520280	      9.01671949	    -43.53587396	     17.72351342	     12.94690742	      0.00000000	    -33.27171158	      3.76949340	    -18.34423959
      4.19000000	     14.27801894	      4.23395453	     14.16263579	      0.04620917	      0.74261448	     -0.24233829	      7.89921158	     -5.89149162	    -12.74735454	    -13.37307961	     13.10667605	     10.78743738	      0.00000000	    -20.07849189	     -0.99240687	      8.77213554	    -46.03602156	     15.72503834	     11.95536183	      0.00000000	    -33.31323466	      4.38379051	    -17.80558627
      4.19500000	     14.39184429	      3.60148412	     14.01364027	      0.05388821	      0.74278061	     -0.24174738	      7.85822768	     -5.04439976	    -12.29383072	    -14.29878758	     12.81651234	      9.79028595	      0.00000000	    -18.97034302	     -1.47857530	      8.52598214	    -48.50735411	     13.81113639	     10.86168506	      0.00000000	    -33.36885163	      5.00502592	    -17.27129721
      4.20000000	     14.50707209	      2.96731107	     13.87321534	      0.06147762	      0.74295297	     -0.24115541	      7.81087545	     -4.19040334	    -11.86497993	    -15.21876086	     12.65731613	      8.93540280	      0.00000000	    -17.82353178	     -1.96467350	      8.31326390	    -50.92555938	     12.04414882	      9.65070491	      0.00000000	    -33.44670934	      5.62553165	    -16.75929655
      4.20500000	     14.62253015	      2.33673181	     13.74086157	      0.06899172	      0.74313042	     -0.24056285	      7.74711319	     -3.33191684	    -11.45142352	    -16.11428678	     12.62929891	      8.21795587	      0.00000000	    -16.64377816	     -2.44337890	      8.14203380	    -53.28230548	     10.47961048	      8.35399684	      0.00000000	    -33.53586868	      6.23701593	    -16.27041329
      4.21000000	     14.73405664	      1.71906252	     13.62112090	      0.07642038	      0.74331439	     -0.23997845	      7.66246343	     -2.47852645	    -11.05685589	    -16.96984346	     12.72985942	      7.62071166	      0.00000000	    -15.43509932	     -2.90636907	      8.01318990	    -55.55907907	      9.16495333	      6.98992557	      0.00000000	    -33.63981006	      6.83199314	    -15.81149768
      4.21500000	     14.84923571	      1.12738286	     13.51755320	      0.08377411	      0.74351323	     -0.23940373	      7.53789708	     -1.64193968	    -10.69696400	    -17.77214720	     12.95109864	      7.13738945	      0.00000000	    -14.21299737	     -3.34171628	      7.93243201	    -57.74708496	      8.12295026	      5.57259219	      0.00000000	    -33.76014787	      7.40030178	    -15.39344878
      4.22000000	     14.96229647	      0.56658693	     13.42834954	      0.09105541	      0.74372984	     -0.23884495	      7.37255644	     -0.82672204	    -10.35923964	    -18.50851152	     13.28129112	      6.74134342	      0.00000000	    -12.97510662	     -3.74102954	      7.89542313	    -59.83984604	      7.36925963	      4.12947320	      0.00000000	    -33.88822036	      7.93407881	    -15.01451456
      4.22500000	     15.10490026	      0.03627281	     13.35211234	      0.09827029	      0.74399869	     -0.23832104	      7.12715994	     -0.03399306	    -10.10633929	    -19.16795256	     13.67937657	      6.46556254	      0.00000000	    -11.76342857	     -4.11136064	      7.88956765	    -61.81988445	      6.90362701	      2.67470099	      0.00000000	    -34.05709213	      8.44140436	    -14.64137247
